<svg version="1.0"
    xmlns="http://www.w3.org/2000/svg" width="298.000000pt" height="106.000000pt" viewBox="0 0 298.000000 106.000000" preserveAspectRatio="xMidYMid meet">

    <g transform="translate(0.000000,106.000000) scale(0.100000,-0.100000)" fill="#000000" stroke="none">
        <path d="M40 525 l0 -495 1455 0 1455 0 0 495 0 495 -1455 0 -1455 0 0 -495z
m912 370 c-2 -11 -41 -176 -88 -368 l-86 -347 -44 0 c-30 0 -42 4 -39 13 2 6
40 163 85 347 45 184 85 345 91 358 8 19 15 23 47 20 31 -2 36 -6 34 -23z
m257 -310 c36 -96 66 -173 68 -171 3 2 32 80 66 173 l62 168 43 3 c29 2 42 -1
42 -10 0 -7 -38 -112 -84 -233 l-83 -220 -45 -3 c-36 -2 -47 1 -53 15 -43 110
-165 437 -165 444 0 5 19 9 43 9 l43 0 63 -175z m652 151 c38 -26 65 -75 55
-101 -11 -29 -64 -18 -100 20 -37 38 -68 44 -104 19 -24 -17 -30 -65 -9 -82 6
-5 45 -20 86 -33 113 -36 153 -89 130 -172 -38 -140 -287 -135 -319 7 l-8 36
44 0 c33 0 46 -4 51 -17 13 -37 36 -53 75 -53 62 0 101 56 63 93 -8 9 -51 27
-95 42 -97 32 -130 65 -130 128 0 87 60 136 165 137 48 0 68 -5 96 -24z
m-1391 -123 l-81 -76 75 -76 c42 -42 76 -80 76 -84 0 -4 -21 -7 -46 -7 -43 0
-50 4 -129 78 -45 42 -83 80 -84 83 0 4 34 41 77 83 l77 76 58 0 59 0 -82 -77z
m1783 1 c42 -42 76 -79 76 -83 -1 -3 -39 -41 -84 -83 -79 -74 -86 -78 -129
-78 -25 0 -46 3 -46 7 0 4 34 42 76 84 l75 76 -82 76 -82 77 59 0 59 0 78 -76z"/>
    </g>
</svg>
